<svg xmlns="http://www.w3.org/2000/svg"  viewBox="0 0 100 100" width="50px" height="50px"><path fill="#f1bc19" d="M77 12A1 1 0 1 0 77 14A1 1 0 1 0 77 12Z"/><path fill="#e6edb7" d="M50 13A37 37 0 1 0 50 87A37 37 0 1 0 50 13Z"/><path fill="#f1bc19" d="M83 11A4 4 0 1 0 83 19A4 4 0 1 0 83 11Z"/><path fill="#88ae45" d="M87 22A2 2 0 1 0 87 26A2 2 0 1 0 87 22Z"/><path fill="#fbcd59" d="M81 74A2 2 0 1 0 81 78 2 2 0 1 0 81 74zM15 59A4 4 0 1 0 15 67 4 4 0 1 0 15 59z"/><path fill="#88ae45" d="M25 85A2 2 0 1 0 25 89A2 2 0 1 0 25 85Z"/><path fill="#fff" d="M18.5 49A2.5 2.5 0 1 0 18.5 54 2.5 2.5 0 1 0 18.5 49zM79.5 32A1.5 1.5 0 1 0 79.5 35 1.5 1.5 0 1 0 79.5 32z"/><g><path fill="#f2f0e7" d="M29.028,67.3c-2.387,0-4.328-1.941-4.328-4.328V37.028c0-2.387,1.941-4.328,4.328-4.328h41.943 c2.387,0,4.328,1.941,4.328,4.328v25.943c0,2.387-1.941,4.328-4.328,4.328H29.028z"/><path fill="#472b29" d="M70.972,33.4c2.001,0,3.628,1.628,3.628,3.628v25.944c0,2.001-1.628,3.628-3.628,3.628H29.028 c-2.001,0-3.628-1.628-3.628-3.628V37.028c0-2.001,1.628-3.628,3.628-3.628H70.972 M70.972,32H29.028 C26.263,32,24,34.263,24,37.028v25.944C24,65.737,26.263,68,29.028,68h41.944C73.737,68,76,65.737,76,62.972V37.028 C76,34.263,73.737,32,70.972,32L70.972,32z"/><path fill="#ceccbe" d="M50.607 54.247L30.673 66.553 30.587 42.113z"/><path fill="#ea5167" d="M70.887,67c2.24,0,4.073-1.853,4.073-4.118V37.476c0-1.877-1.267-3.454-2.974-3.945L49.967,47.37 L27.969,33.545c-1.684,0.505-2.929,2.07-2.929,3.931v25.407c0,2.265,1.833,4.118,4.073,4.118h1.772V43.256l19.082,11.15 l19.082-11.15V67H70.887z"/><g><path fill="#472b29" d="M49.987 47.871c-.092 0-.185-.025-.266-.077l-10.523-6.608c-.234-.147-.304-.456-.157-.689.146-.233.455-.303.689-.157l10.257 6.441 4.518-2.838c.234-.148.542-.077.689.157s.077.542-.157.689l-4.784 3.005C50.172 47.845 50.08 47.871 49.987 47.871zM57.739 43.002c-.167 0-.329-.083-.424-.234-.147-.234-.077-.542.157-.689L61.58 39.5c.234-.148.543-.076.689.157.147.234.077.542-.157.689l-4.107 2.579C57.922 42.978 57.83 43.002 57.739 43.002zM70.923 67.5h-1.838c-.276 0-.5-.224-.5-.5v-5.191c0-.276.224-.5.5-.5s.5.224.5.5V66.5h1.338c1.972 0 3.577-1.623 3.577-3.618V37.476c0-1.525-.979-2.892-2.407-3.397l-6.772 4.253c-.235.146-.543.076-.689-.157-.147-.234-.076-.542.157-.689l6.969-4.376c.121-.075.269-.096.404-.057 1.966.564 3.338 2.383 3.338 4.425v25.407C75.5 65.429 73.447 67.5 70.923 67.5z"/><path fill="#472b29" d="M69.085 59.089c-.276 0-.5-.224-.5-.5v-4.271c0-.276.224-.5.5-.5s.5.224.5.5v4.271C69.585 58.866 69.361 59.089 69.085 59.089zM30.89 67.5h-1.773c-2.523 0-4.577-2.071-4.577-4.618V37.476c0-2.016 1.352-3.829 3.288-4.41.136-.043.287-.022.41.056l2.686 1.687c.234.147.304.456.157.689-.146.234-.453.305-.689.157l-2.485-1.561c-1.403.518-2.366 1.878-2.366 3.382v25.407c0 1.995 1.604 3.618 3.577 3.618h1.273V42.82c0-.181.097-.347.255-.436.157-.089.35-.086.504.008l18.838 11.429 18.838-11.429c.155-.094.348-.096.504-.008.158.088.255.255.255.436v8.608c0 .276-.224.5-.5.5s-.5-.224-.5-.5v-7.72L50.247 54.833c-.159.097-.359.097-.519 0L31.39 43.708V67C31.39 67.276 31.167 67.5 30.89 67.5z"/><path fill="#472b29" d="M36.521,39.414c-0.091,0-0.183-0.025-0.266-0.077l-3.006-1.888 c-0.233-0.147-0.304-0.456-0.157-0.689c0.146-0.233,0.456-0.303,0.689-0.157l3.006,1.888c0.233,0.147,0.304,0.456,0.157,0.689 C36.85,39.331,36.687,39.414,36.521,39.414z"/></g></g></svg>