<svg xmlns="http://www.w3.org/2000/svg"  viewBox="0 0 100 100" width="50px" height="50px"><path fill="#f1bc19" d="M77 12A1 1 0 1 0 77 14A1 1 0 1 0 77 12Z"/><path fill="#e6edb7" d="M50 13A37 37 0 1 0 50 87A37 37 0 1 0 50 13Z"/><path fill="#f1bc19" d="M83 11A4 4 0 1 0 83 19A4 4 0 1 0 83 11Z"/><path fill="#88ae45" d="M87 22A2 2 0 1 0 87 26A2 2 0 1 0 87 22Z"/><path fill="#fbcd59" d="M81 74A2 2 0 1 0 81 78 2 2 0 1 0 81 74zM15 59A4 4 0 1 0 15 67 4 4 0 1 0 15 59z"/><path fill="#88ae45" d="M25 85A2 2 0 1 0 25 89A2 2 0 1 0 25 85Z"/><path fill="#fff" d="M18.5 49A2.5 2.5 0 1 0 18.5 54 2.5 2.5 0 1 0 18.5 49zM79.5 32A1.5 1.5 0 1 0 79.5 35 1.5 1.5 0 1 0 79.5 32z"/><path fill="#babce2" d="M35,72.3c-4,0-7.3-3.3-7.3-7.3V35c0-4,3.3-7.3,7.3-7.3h30c4,0,7.3,3.3,7.3,7.3v30c0,4-3.3,7.3-7.3,7.3H35z"/><path fill="#472b29" d="M65,28.4c3.6,0,6.6,3,6.6,6.6v30c0,3.6-3,6.6-6.6,6.6H35c-3.6,0-6.6-3-6.6-6.6V35c0-3.6,3-6.6,6.6-6.6H65 M65,27H35c-4.4,0-8,3.6-8,8v30c0,4.4,3.6,8,8,8h30c4.4,0,8-3.6,8-8V35C73,30.6,69.4,27,65,27L65,27z"/><path fill="#fdfcee" d="M68.5,47.9v1.8V64c0,2.5-2,4.5-4.5,4.5H36c-2.5,0-4.5-2-4.5-4.5V36c0-2.5,2-4.5,4.5-4.5h25.4H64 c2.5,0,4.5,2,4.5,4.5v3.4v2v1v1.1v2.9V47.9"/><path fill="#472b29" d="M68.5 47.4c-.3 0-.5-.2-.5-.5V43c0-.3.2-.5.5-.5S69 42.7 69 43v3.9C69 47.2 68.8 47.4 68.5 47.4zM68.5 40.5c-.3 0-.5-.2-.5-.5v-2c0-.3.2-.5.5-.5S69 37.7 69 38v2C69 40.3 68.8 40.5 68.5 40.5z"/><path fill="#472b29" d="M64,69H36c-2.8,0-5-2.2-5-5V36c0-2.8,2.2-5,5-5h25.4c0.3,0,0.5,0.2,0.5,0.5S61.7,32,61.4,32H36 c-2.2,0-4,1.8-4,4v28c0,2.2,1.8,4,4,4h28c2.2,0,4-1.8,4-4V49.6c0-0.3,0.2-0.5,0.5-0.5s0.5,0.2,0.5,0.5V64C69,66.8,66.8,69,64,69z"/><path fill="#8a8dce" d="M46,61.5c-4.1,0-7.5-3.4-7.5-7.5v-8c0-4.1,3.4-7.5,7.5-7.5h8c4.1,0,7.5,3.4,7.5,7.5v8c0,4.1-3.4,7.5-7.5,7.5 H46z"/><path fill="#472b29" d="M54,39c3.9,0,7,3.1,7,7v8c0,3.9-3.1,7-7,7h-8c-3.9,0-7-3.1-7-7v-8c0-3.9,3.1-7,7-7H54 M54,38h-8 c-4.4,0-8,3.6-8,8v8c0,4.4,3.6,8,8,8h8c4.4,0,8-3.6,8-8v-8C62,41.6,58.4,38,54,38L54,38z"/><g><path fill="#fdfcee" d="M50 44.5A5.5 5.5 0 1 0 50 55.5A5.5 5.5 0 1 0 50 44.5Z"/><path fill="#472b29" d="M50,45c2.8,0,5,2.2,5,5s-2.2,5-5,5s-5-2.2-5-5S47.2,45,50,45 M50,44c-3.3,0-6,2.7-6,6s2.7,6,6,6s6-2.7,6-6 S53.3,44,50,44L50,44z"/></g><g><path fill="#fdfcee" d="M56.5 42A1.5 1.5 0 1 0 56.5 45A1.5 1.5 0 1 0 56.5 42Z"/><path fill="#472b29" d="M56.5,45.5c-1.1,0-2-0.9-2-2s0.9-2,2-2s2,0.9,2,2S57.6,45.5,56.5,45.5z M56.5,42.5c-0.6,0-1,0.4-1,1s0.4,1,1,1 s1-0.4,1-1S57.1,42.5,56.5,42.5z"/></g></svg>